<?xml version="1.0" encoding="ISO-8859-1" standalone="no"?><!-- Generator: Adobe Illustrator 16.0.0, SVG Export Plug-In . SVG Version: 6.00 Build 0)  --><svg xmlns="http://www.w3.org/2000/svg" xmlns:xlink="http://www.w3.org/1999/xlink" fill="#000000" height="73.338px" id="Layer_1" style="enable-background:new 0 0 91.09 73.338" version="1.1" viewBox="0 0 91.09 73.338" width="91.09px" x="0px" xml:space="preserve" y="0px">
<g id="change1">
	<path d="M90.676,19.911l-0.44-0.635c-0.113-0.246-0.269-0.468-0.456-0.658L77.552,0.897   c-0.433-0.623-1.144-1.094-1.902-1.094H45.546H15.44c-0.759,0-1.47,0.471-1.903,1.094L1.307,18.573   c-0.184,0.187-0.336,0.43-0.448,0.671l-0.445,0.654c-0.604,0.87-0.541,2.045,0.154,2.845l43.23,49.794   c0.017,0.02,0.038,0.033,0.056,0.053c0.083,0.089,0.172,0.174,0.27,0.251c0.043,0.033,0.087,0.063,0.132,0.094   c0.043,0.029,0.082,0.063,0.127,0.09c0.029,0.017,0.061,0.022,0.09,0.037c0.119,0.062,0.242,0.112,0.369,0.153   c0.054,0.018,0.105,0.271,0.159,0.285c0.176,0.043,0.355,0.303,0.537,0.303c0.002,0,0.005,0,0.008,0h0.001h0.001   c0.003,0,0.006,0,0.008,0c0.182,0,0.361-0.26,0.537-0.303c0.054-0.014,0.104-0.151,0.158-0.168c0.128-0.042,0.252-0.15,0.372-0.213   c0.028-0.016,0.06-0.049,0.087-0.065c0.044-0.025,0.081-0.073,0.123-0.102c0.047-0.031,0.094-0.07,0.139-0.105   c0.097-0.075,0.185-0.161,0.266-0.249c0.019-0.02,0.041-0.035,0.059-0.056L90.523,22.75C91.217,21.951,91.281,20.781,90.676,19.911   z M83.691,17.967l-18.589,0.159l9.475-13.294L83.691,17.967z M45.546,64.061L31.06,22.803h28.972L45.546,64.061z M31.688,17.803   l-0.455-0.47L45.546,5.269l14.312,12.022l-0.456,0.512H31.688z M62.557,13.888L51.854,4.803h17.178L62.557,13.888z M28.535,13.889   l-6.476-9.086H39.24L28.535,13.889z M16.513,4.833l9.475,13.293L7.399,17.967L16.513,4.833z M6.565,22.592l19.581,0.167   l13.197,37.585L6.565,22.592z M51.75,60.343L64.946,22.76l19.579-0.167L51.75,60.343z" style="fill:#ffc460"/>
</g>
</svg>